<svg width="158" height="32" viewBox="0 0 158 32" fill="none" xmlns="http://www.w3.org/2000/svg">
<g clip-path="url(#clip0_111_195)">
<mask id="mask0_111_195" style="mask-type:luminance" maskUnits="userSpaceOnUse" x="0" y="0" width="158" height="32">
<path d="M157.828 0H0V32H157.828V0Z" fill="white"/>
</mask>
<g mask="url(#mask0_111_195)">
<path d="M98.669 21.6581V9.4231H96.75V10.9331C96.2964 10.3663 95.7196 9.9103 95.0634 9.59979C94.4072 9.28928 93.6889 9.13241 92.963 9.1411C90.148 9.1411 87.896 11.5981 87.896 16.3581C87.896 21.0911 90.02 23.1381 92.706 23.1381C93.4782 23.1276 94.2391 22.9507 94.9368 22.6196C95.6345 22.2884 96.2526 21.8107 96.749 21.2191V21.9101C96.749 25.0311 95.726 26.2101 91.249 26.3371L91.862 27.7961C96.853 27.6421 98.669 25.6961 98.669 21.6551M96.75 19.5301C96.3471 20.1066 95.8165 20.5822 95.1995 20.9198C94.5824 21.2573 93.8957 21.4477 93.193 21.4761C91.07 21.4761 89.793 19.7101 89.793 16.3331C89.793 12.7241 90.893 10.8051 93.12 10.8051C93.8455 10.8155 94.5572 11.0056 95.1912 11.3585C95.8252 11.7114 96.3618 12.216 96.753 12.8271L96.75 19.5301ZM105.372 5.6581C105.377 5.29913 105.24 4.95281 104.991 4.69414C104.742 4.43547 104.401 4.28528 104.042 4.2761C103.679 4.2761 103.331 4.42034 103.074 4.67707C102.817 4.93381 102.673 5.28202 102.673 5.6451C102.673 6.00818 102.817 6.35639 103.074 6.61313C103.331 6.86987 103.679 7.0141 104.042 7.0141C104.397 7.00628 104.734 6.86009 104.983 6.60674C105.231 6.3534 105.371 6.01297 105.372 5.6581ZM104.963 9.4191H103.044V22.8581H104.963V9.4191ZM117.654 19.3471C117.654 16.9421 116.169 16.2001 113.637 15.0471C111.359 14.0241 110.668 13.5621 110.668 12.4371C110.668 11.4641 111.487 10.7731 112.894 10.7731C114.123 10.7346 115.321 11.1634 116.247 11.9731L117.321 10.5661C116.101 9.5963 114.579 9.08843 113.021 9.1321C110.591 9.1321 108.821 10.5151 108.821 12.5611C108.821 14.7111 109.946 15.5301 112.633 16.6821C115.013 17.7051 115.805 18.3191 115.805 19.4201C115.805 20.7201 114.935 21.4921 113.092 21.4921C111.731 21.4656 110.428 20.9367 109.433 20.0071L108.308 21.4141C109.642 22.5115 111.313 23.1167 113.041 23.1281C115.378 23.1381 117.655 21.9881 117.655 19.3511L117.654 19.3471ZM126.815 11.0321V9.4231H123.487V4.2041L121.568 5.2781V9.4231H119.904V11.0361H121.568V20.0931C121.568 22.3201 122.468 23.1381 124.127 23.1381C124.977 23.1604 125.822 23.0036 126.608 22.6781L126.736 21.0141C126.141 21.2784 125.494 21.4095 124.843 21.3981C123.819 21.3981 123.487 20.9891 123.487 19.7861V11.0361L126.815 11.0321ZM133.008 5.6581C133.012 5.29912 132.875 4.95294 132.626 4.69435C132.377 4.43577 132.036 4.28553 131.677 4.2761C131.314 4.2761 130.966 4.42034 130.709 4.67707C130.452 4.93381 130.308 5.28202 130.308 5.6451C130.308 6.00818 130.452 6.35639 130.709 6.61313C130.966 6.86987 131.314 7.0141 131.677 7.0141C132.032 7.00628 132.37 6.86013 132.618 6.60681C132.867 6.35349 133.007 6.01306 133.008 5.6581ZM132.598 9.4191H130.679V22.8581H132.598V9.4191ZM146.287 10.7291C145.12 9.68652 143.604 9.12014 142.039 9.1421C139.224 9.1421 136.256 11.2421 136.256 16.2051C136.256 20.8871 138.969 23.1391 141.911 23.1391C142.723 23.1553 143.53 22.997 144.276 22.6747C145.022 22.3525 145.69 21.8738 146.235 21.2711L145.087 20.0421C144.702 20.486 144.226 20.8432 143.693 21.0904C143.16 21.3375 142.58 21.469 141.992 21.4761C139.611 21.4761 138.204 19.3511 138.204 16.0511C138.204 12.6981 139.817 10.8051 141.915 10.8051C142.515 10.8026 143.11 10.9212 143.664 11.1536C144.217 11.3861 144.718 11.7277 145.137 12.1581L146.287 10.7291ZM157.827 19.3521C157.827 16.9471 156.343 16.2051 153.81 15.0521C151.532 14.0291 150.841 13.5671 150.841 12.4421C150.841 11.4691 151.66 10.7781 153.067 10.7781C154.296 10.7398 155.494 11.1686 156.419 11.9781L157.493 10.5711C156.273 9.6013 154.751 9.09343 153.193 9.1371C150.762 9.1371 148.993 10.5201 148.993 12.5661C148.993 14.7161 150.119 15.5351 152.806 16.6871C155.186 17.7101 155.978 18.3241 155.978 19.4251C155.978 20.7251 155.108 21.4971 153.265 21.4971C151.904 21.4706 150.601 20.9417 149.606 20.0121L148.487 21.4241C149.822 22.5213 151.493 23.1265 153.221 23.1381C155.551 23.1381 157.828 21.9881 157.828 19.3511L157.827 19.3521Z" fill="white"/>
<path d="M52.354 22.8569V13.8499C52.354 10.8299 50.154 9.14088 46.904 9.14088C45.1273 9.08747 43.3742 9.55914 41.864 10.4969L43.22 12.9539C44.3341 12.3013 45.6146 11.9885 46.904 12.0539C47.1461 12.0224 47.3922 12.0434 47.6254 12.1155C47.8587 12.1877 48.0736 12.3092 48.2557 12.4718C48.4378 12.6344 48.5827 12.8344 48.6806 13.058C48.7785 13.2817 48.8271 13.5238 48.823 13.7679V14.4319C48.0171 14.0488 47.1309 13.8646 46.239 13.8949C43.195 13.8949 40.79 15.3799 40.79 18.3469C40.79 21.5969 43.297 23.1319 45.805 23.1319C46.9266 23.1498 48.0106 22.7273 48.824 21.9549V22.8549H52.356L52.354 22.8569ZM48.822 18.9159C48.5467 19.3083 48.178 19.6259 47.7493 19.8403C47.3205 20.0547 46.8452 20.159 46.366 20.1439C44.856 20.1439 44.319 19.2989 44.319 18.3519C44.319 17.2779 45.035 16.6629 46.366 16.6629C47.2237 16.5872 48.0833 16.7846 48.822 17.2269V18.9159ZM66.5551 20.5779V9.42288H63.0251V10.1889C62.2388 9.50235 61.2278 9.12867 60.1841 9.13888C56.8581 9.13888 54.963 11.9539 54.963 15.9709C54.963 20.9869 57.3171 23.1359 60.1841 23.1359C61.2398 23.1364 62.2559 22.734 63.0251 22.0109C63.0251 24.0839 62.282 24.7489 59.519 25.1329L60.772 27.7949C65.481 27.2889 66.5551 25.0049 66.5551 20.5779ZM63.0251 18.6849C62.7913 19.0451 62.4679 19.3384 62.0866 19.5358C61.7052 19.7332 61.2791 19.828 60.85 19.8109C59.468 19.8109 58.55 18.6589 58.55 15.8959C58.55 13.6439 59.2931 12.4669 60.6501 12.4669C61.1108 12.4489 61.5689 12.5445 61.984 12.7455C62.3991 12.9464 62.7583 13.2463 63.03 13.6189L63.0251 18.6849ZM78.812 10.0849C78.4818 9.77003 78.0922 9.52413 77.6658 9.36154C77.2395 9.19894 76.7851 9.12291 76.329 9.13788C75.812 9.13107 75.2991 9.23223 74.8234 9.4349C74.3476 9.63757 73.9194 9.93728 73.566 10.3149V9.41488H70.036V22.8569H73.566V15.5889C73.566 13.2609 74.4661 12.6719 75.8441 12.6719C76.6116 12.6936 77.3427 13.0043 77.8911 13.5419L78.812 10.0849ZM84.902 6.29788C84.902 5.89797 84.7835 5.50703 84.5613 5.17452C84.3391 4.842 84.0233 4.58284 83.6538 4.42979C83.2844 4.27675 82.8778 4.23671 82.4856 4.31473C82.0933 4.39275 81.7331 4.58533 81.4503 4.86811C81.1675 5.15089 80.9749 5.51118 80.8969 5.90341C80.8189 6.29564 80.8589 6.70219 81.012 7.07167C81.165 7.44114 81.4242 7.75693 81.7567 7.97911C82.0892 8.20129 82.4801 8.31988 82.88 8.31988C83.4146 8.31441 83.9258 8.09963 84.3038 7.72161C84.6818 7.34359 84.8966 6.83245 84.902 6.29788ZM84.6451 9.41888H81.113V22.8569H84.6451V9.41888Z" fill="white"/>
<path fill-rule="evenodd" clip-rule="evenodd" d="M15.212 15.8788C14.4306 15.5393 13.6291 15.2481 12.812 15.0068C10.0637 16.2645 7.60876 18.0831 5.60498 20.3458C5.99387 21.2728 6.50726 22.1425 7.13098 22.9308C9.19312 19.9414 11.9723 17.5171 15.214 15.8798" fill="white"/>
<path d="M4.85099 14.2081C4.58626 15.8193 4.67567 17.4689 5.11299 19.0421C5.45886 20.2844 6.01857 21.4569 6.76699 22.5071C8.7913 19.6131 11.4752 17.2425 14.597 15.5911C13.5465 15.1745 12.4639 14.8437 11.36 14.6021C9.8751 14.2788 8.35967 14.1165 6.83999 14.1181C6.42532 14.1181 6.02933 14.1287 5.65199 14.1501C5.38533 14.1647 5.11866 14.1847 4.85199 14.2101M4.07799 19.3301C3.56035 17.4666 3.48909 15.5073 3.86999 13.6111L3.94799 13.2251L4.33799 13.1811C4.74666 13.1351 5.16399 13.1001 5.58999 13.0761C6.01599 13.0521 6.43166 13.0397 6.83699 13.0391C10.038 13.0352 13.2015 13.7279 16.108 15.0691L17.166 15.5571L16.108 16.0461C12.6129 17.6624 9.62519 20.202 7.46699 23.3911L7.64299 23.5911L6.85099 24.3201L6.80699 24.2711C6.63099 24.0771 6.46199 23.8791 6.29999 23.6771L6.13199 23.4711V23.4661C5.18964 22.2327 4.49178 20.8305 4.07599 19.3351M7.03999 24.5181L6.87099 24.3391L7.66299 23.6101L7.81599 23.7731L7.97299 23.9321C9.60924 25.5751 11.7183 26.6653 14.005 27.0501L13.833 28.1181C11.325 27.6959 9.0114 26.5014 7.21499 24.7011L7.03999 24.5181Z" fill="white"/>
<path d="M24.5491 7.36489C26.554 9.36962 27.8018 12.0075 28.0799 14.8291C28.3579 17.6507 27.649 20.4814 26.0739 22.8389C24.4989 25.1964 22.1551 26.9348 19.442 27.758C16.7289 28.5812 13.8143 28.4382 11.1948 27.3533C8.57529 26.2684 6.413 24.3089 5.07632 21.8085C3.73965 19.3081 3.3113 16.4216 3.86426 13.6408C4.41721 10.86 5.91727 8.35695 8.10883 6.55814C10.3004 4.75934 13.0479 3.77608 15.8831 3.77589C17.4928 3.77371 19.0871 4.08966 20.5743 4.70558C22.0615 5.3215 23.4123 6.22525 24.5491 7.36489ZM27.0591 16.0299C27.06 13.4439 26.1641 10.9376 24.5241 8.93814C22.8842 6.93866 20.6016 5.5697 18.0654 5.06455C15.5293 4.5594 12.8964 4.9493 10.6155 6.16783C8.33458 7.38635 6.54676 9.3581 5.5567 11.7471C4.56665 14.136 4.4356 16.7944 5.18591 19.2691C5.93621 21.7439 7.52144 23.8819 9.67145 25.3189C11.8215 26.7558 14.4032 27.4028 16.9768 27.1495C19.5503 26.8962 21.9565 25.7584 23.7851 23.9299C24.8242 22.8936 25.6483 21.6622 26.2101 20.3065C26.772 18.9508 27.0605 17.4974 27.0591 16.0299Z" fill="white"/>
<path d="M27.8941 13.609C28.4149 16.189 28.0911 18.8681 26.9707 21.2498C25.8503 23.6314 23.9928 25.5891 21.6732 26.8329C19.3536 28.0767 16.6952 28.5406 14.0914 28.1559C11.4877 27.7713 9.07694 26.5585 7.2161 24.697C7.08877 24.5697 6.94544 24.418 6.7861 24.242C6.63944 24.0794 6.50343 23.9214 6.3781 23.768L6.1311 23.468L6.3441 23.14C8.35265 20.0395 11.1053 17.4909 14.3512 15.7268C17.597 13.9627 21.2328 13.039 24.9271 13.04C25.3338 13.04 25.7531 13.0524 26.1851 13.077C26.6171 13.1017 27.0308 13.135 27.4261 13.177L27.8161 13.221L27.8941 13.609ZM26.5811 19.276C27.0764 17.6344 27.1896 15.9012 26.9121 14.209C26.6494 14.1844 26.3878 14.1644 26.1271 14.149C25.7451 14.127 25.3451 14.116 24.9271 14.116C21.4793 14.1128 18.0835 14.957 15.0386 16.5743C11.9937 18.1916 9.39288 20.5325 7.4651 23.391L7.5821 23.523C7.68877 23.6417 7.8221 23.7794 7.9821 23.936C9.34813 25.3003 11.0441 26.2876 12.9049 26.8019C14.7657 27.3162 16.728 27.3399 18.6007 26.8709C20.4735 26.4018 22.1928 25.4558 23.5915 24.1251C24.9902 22.7943 26.0205 21.1241 26.5821 19.277" fill="white"/>
<path d="M8.67416 21.229L11.7392 26.538L10.8082 27.073L7.74316 21.764L8.67416 21.229Z" fill="white"/>
<path d="M10.305 19.4482L14.888 27.3862L13.957 27.9252L9.37402 19.9862L10.305 19.4482Z" fill="white"/>
<path d="M12.0711 17.9038L17.5631 27.4158L16.6321 27.9508L11.1401 18.4388L12.0711 17.9038Z" fill="white"/>
<path d="M13.962 16.5762L19.933 26.9192L19.002 27.4542L13.032 17.1112L13.962 16.5762Z" fill="white"/>
<path d="M15.9781 15.4609L22.0601 25.9949L21.1291 26.5339L15.0481 15.9999L15.9781 15.4609Z" fill="white"/>
<path d="M18.118 14.562L23.955 24.672L23.024 25.211L17.187 15.101L18.118 14.562Z" fill="white"/>
<path d="M20.3872 13.8901L25.6112 22.9371L24.6802 23.4761L19.4521 14.4281L20.3872 13.8901Z" fill="white"/>
<path d="M22.7982 13.4639L26.9762 20.6999L26.0452 21.2389L21.8672 14.0029L22.7982 13.4639Z" fill="white"/>
<path d="M25.367 13.3091L27.902 17.7001L26.971 18.2351L24.436 13.8441L25.367 13.3091Z" fill="white"/>
<path d="M31.9351 19.716C31.8401 19.621 31.7359 19.5356 31.6241 19.461C32.4836 15.5785 31.8665 11.5151 29.8932 8.06279C27.9199 4.61048 24.7317 2.01669 20.9501 0.787016L20.9131 0.776016C16.8813 -0.523599 12.4987 -0.171335 8.72627 1.75556C4.95383 3.68246 2.09947 7.02672 0.789099 11.055L0.776099 11.091C-0.0854616 13.7636 -0.22847 16.6159 0.361443 19.3613C0.951355 22.1067 2.25341 24.6485 4.13679 26.7313C6.02016 28.8142 8.41852 30.3646 11.0909 31.227C13.7633 32.0893 16.6155 32.2331 19.3611 31.644C19.5007 31.6144 19.6229 31.5306 19.7007 31.411C19.7786 31.2913 19.8057 31.1457 19.7761 31.006C19.7465 30.8664 19.6627 30.7442 19.543 30.6664C19.4234 30.5886 19.2777 30.5614 19.1381 30.591C16.5774 31.141 13.9171 31.0074 11.4245 30.2036C8.9318 29.3999 6.69457 27.9542 4.93756 26.012C3.18055 24.0697 1.96565 21.6993 1.41492 19.1388C0.864189 16.5783 0.997031 13.9179 1.8001 11.425V11.419C3.01515 7.65323 5.67626 4.52429 9.19813 2.72041C12.72 0.916539 16.8142 0.585465 20.5801 1.80002C24.0984 2.93291 27.071 5.33126 28.9222 8.5305C30.7733 11.7297 31.3712 15.5022 30.6001 19.117H30.4931C30.2241 19.1167 29.9577 19.1695 29.7092 19.2725C29.4607 19.3754 29.235 19.5265 29.0451 19.717C28.6729 20.103 28.4672 20.6196 28.4721 21.1558C28.4769 21.6919 28.6921 22.2047 29.0712 22.5839C29.4504 22.963 29.9632 23.1782 30.4993 23.1831C31.0355 23.1879 31.5521 22.9822 31.9381 22.61C32.1284 22.4202 32.2793 22.1948 32.3823 21.9466C32.4853 21.6984 32.5384 21.4323 32.5384 21.1635C32.5384 20.8948 32.4853 20.6287 32.3823 20.3805C32.2793 20.1322 32.1284 19.9068 31.9381 19.717M31.1761 21.848C30.9942 22.0305 30.7472 22.1332 30.4895 22.1336C30.2318 22.134 29.9846 22.032 29.8021 21.85C29.6196 21.6681 29.5169 21.4211 29.5165 21.1634C29.5162 20.9058 29.6182 20.6585 29.8001 20.476C29.9819 20.2943 30.2284 20.1923 30.4855 20.1924C30.7425 20.1925 30.9889 20.2947 31.1706 20.4765C31.3523 20.6583 31.4543 20.9049 31.4542 21.1619C31.4541 21.4189 31.3519 21.6653 31.1701 21.847" fill="white"/>
<path d="M23.3392 29.0789C23.4007 29.0409 23.4692 29.0156 23.5407 29.0047C23.6122 28.9938 23.6852 28.9974 23.7553 29.0153C23.8254 29.0332 23.8911 29.0651 23.9486 29.109C24.0061 29.1529 24.0541 29.208 24.0898 29.2708C24.1255 29.3337 24.1482 29.4032 24.1565 29.4751C24.1647 29.5469 24.1584 29.6197 24.1379 29.6891C24.1174 29.7584 24.0831 29.8229 24.0371 29.8787C23.9911 29.9346 23.9343 29.9805 23.8702 30.0139C23.4702 30.2419 23.0552 30.4532 22.6252 30.6479C22.1952 30.8425 21.7638 31.0169 21.3312 31.1709C21.1966 31.2183 21.0486 31.2104 20.9199 31.1488C20.7911 31.0872 20.6921 30.977 20.6447 30.8424C20.5972 30.7078 20.6051 30.5598 20.6667 30.4311C20.7283 30.3024 20.8386 30.2033 20.9732 30.1559C21.3892 30.0092 21.7908 29.8475 22.1782 29.6709C22.5655 29.4942 22.9532 29.2969 23.3392 29.0789Z" fill="white"/>
<path d="M25.4041 27.66C25.4589 27.6155 25.5219 27.5822 25.5895 27.562C25.6571 27.5418 25.7281 27.5351 25.7983 27.5424C25.8685 27.5496 25.9365 27.5706 25.9986 27.6042C26.0607 27.6377 26.1156 27.6832 26.1601 27.738C26.2046 27.7927 26.2379 27.8557 26.2581 27.9234C26.2783 27.991 26.2849 28.0619 26.2777 28.1321C26.2704 28.2023 26.2494 28.2704 26.2159 28.3325C26.1823 28.3946 26.1369 28.4495 26.0821 28.494L25.8641 28.667L25.6421 28.838C25.5282 28.924 25.3848 28.9613 25.2434 28.9416C25.102 28.9219 24.9742 28.8469 24.8881 28.733C24.802 28.6191 24.7648 28.4756 24.7844 28.3342C24.8041 28.1928 24.8792 28.065 24.9931 27.979L25.1991 27.821L25.4041 27.66Z" fill="white"/>
</g>
</g>
<defs>
<clipPath id="clip0_111_195">
<rect width="157.828" height="32" fill="white"/>
</clipPath>
</defs>
</svg>
